<svg width="58" height="59" viewBox="0 0 58 59" fill="none" xmlns="http://www.w3.org/2000/svg">
<g filter="url(#filter0_dd_20005141_5179)">
<rect x="11" y="7" width="36" height="36" rx="18" fill="white"/>
<rect x="11.5" y="7.5" width="35" height="35" rx="17.5" stroke="#E2E5F1"/>
<path d="M27.3337 24.1667H24.9178C24.9178 24.1642 24.9178 24.1617 24.9187 24.1592C24.9728 23.8933 25.0545 23.6308 25.1612 23.3783C25.2662 23.1308 25.3953 22.8925 25.5453 22.67C25.6937 22.45 25.8653 22.2425 26.0537 22.0533C26.2428 21.865 26.4503 21.6933 26.672 21.5442C26.8937 21.3942 27.1312 21.2658 27.3787 21.1608C27.6303 21.0542 27.8928 20.9725 28.1603 20.9183C28.7087 20.8058 29.2912 20.8058 29.842 20.9183C30.107 20.9725 30.3703 21.0542 30.6228 21.1608C30.8695 21.265 31.107 21.395 31.3312 21.545C31.5528 21.6942 31.7595 21.865 31.9462 22.0525L33.1262 20.8758C32.8645 20.6125 32.5728 20.3725 32.2628 20.1633C31.952 19.9533 31.6187 19.7717 31.2728 19.625C30.9187 19.475 30.5495 19.3608 30.177 19.285C29.4078 19.1275 28.5945 19.1275 27.8278 19.285C27.4537 19.3617 27.0845 19.4758 26.7312 19.6258C26.382 19.7725 26.0487 19.9533 25.7387 20.1633C25.4303 20.3708 25.1403 20.6108 24.8753 20.875C24.6103 21.1392 24.3712 21.43 24.1645 21.7375C23.9545 22.0483 23.7728 22.3817 23.6262 22.7292C23.4762 23.0825 23.362 23.4517 23.2862 23.825C23.2628 23.9375 23.2503 24.0525 23.2337 24.1667H20.667L24.0003 27.5L27.3337 24.1667ZM30.667 25.8333H33.0828C33.082 25.8358 33.0828 25.8383 33.082 25.84C33.027 26.11 32.9453 26.3725 32.8387 26.6217C32.7362 26.8658 32.607 27.1042 32.4562 27.3283C32.307 27.5483 32.1353 27.7567 31.9453 27.9467C31.7578 28.1342 31.5512 28.305 31.3295 28.455C31.1062 28.605 30.8687 28.7342 30.622 28.8392C30.3695 28.9458 30.107 29.0275 29.8403 29.0817C29.2928 29.1942 28.7095 29.1942 28.1595 29.0817C27.8937 29.0275 27.6312 28.9458 27.3787 28.8392C27.1312 28.7342 26.8928 28.605 26.6703 28.455C26.4503 28.3067 26.2428 28.135 26.0537 27.9467L24.8753 29.125C25.1395 29.3892 25.4303 29.6292 25.7378 29.8367C26.0487 30.0467 26.382 30.2283 26.7295 30.375C27.0828 30.525 27.452 30.6392 27.8253 30.715C28.2095 30.7933 28.6045 30.8333 29.0003 30.8333C29.3962 30.8333 29.7912 30.7933 30.1737 30.715C30.5478 30.6392 30.9178 30.5242 31.2712 30.3742C31.617 30.2275 31.9503 30.0467 32.2612 29.8367C32.5712 29.6275 32.8628 29.3867 33.1237 29.125C33.3878 28.8608 33.6278 28.57 33.8362 28.2608C34.0478 27.9467 34.2295 27.6133 34.3737 27.2717C34.522 26.9217 34.6362 26.5525 34.7137 26.175C34.7362 26.0625 34.7495 25.9475 34.7662 25.8333H37.3337L34.0003 22.5L30.667 25.8333Z" fill="#33354D"/>
</g>
<defs>
<filter id="filter0_dd_20005141_5179" x="0" y="0.4" width="58" height="58" filterUnits="userSpaceOnUse" color-interpolation-filters="sRGB">
<feFlood flood-opacity="0" result="BackgroundImageFix"/>
<feColorMatrix in="SourceAlpha" type="matrix" values="0 0 0 0 0 0 0 0 0 0 0 0 0 0 0 0 0 0 127 0" result="hardAlpha"/>
<feMorphology radius="1" operator="erode" in="SourceAlpha" result="effect1_dropShadow_20005141_5179"/>
<feOffset dy="2"/>
<feGaussianBlur stdDeviation="3.2"/>
<feColorMatrix type="matrix" values="0 0 0 0 0.0745098 0 0 0 0 0.0627451 0 0 0 0 0.133333 0 0 0 0.03 0"/>
<feBlend mode="normal" in2="BackgroundImageFix" result="effect1_dropShadow_20005141_5179"/>
<feColorMatrix in="SourceAlpha" type="matrix" values="0 0 0 0 0 0 0 0 0 0 0 0 0 0 0 0 0 0 127 0" result="hardAlpha"/>
<feMorphology radius="1" operator="erode" in="SourceAlpha" result="effect2_dropShadow_20005141_5179"/>
<feOffset dy="4.4"/>
<feGaussianBlur stdDeviation="6"/>
<feColorMatrix type="matrix" values="0 0 0 0 0.0745098 0 0 0 0 0.0627451 0 0 0 0 0.133333 0 0 0 0.06 0"/>
<feBlend mode="normal" in2="effect1_dropShadow_20005141_5179" result="effect2_dropShadow_20005141_5179"/>
<feBlend mode="normal" in="SourceGraphic" in2="effect2_dropShadow_20005141_5179" result="shape"/>
</filter>
</defs>
</svg>
